<?xml version="1.0" encoding="utf-8"?>
<!-- Generator: Adobe Illustrator 25.4.1, SVG Export Plug-In . SVG Version: 6.00 Build 0)  -->
<svg version="1.1" id="图层_1" xmlns="http://www.w3.org/2000/svg" xmlns:xlink="http://www.w3.org/1999/xlink" x="0px" y="0px"
	 width="200px" height="200px" viewBox="0 0 200 200" style="enable-background:new 0 0 200 200;" xml:space="preserve">
<style type="text/css">
	.st0{fill:#211207;}
	.st1{fill:#ED6D02;}
</style>
<rect class="st0" width="200" height="200"/>
<path class="st1" d="M128.2,148.3h-20.3l-6.5-21H69.6l-6.4,21H43l32-91.7h21.9L128.2,148.3z M97,112.1L87,80.3c-0.6-2-1.1-4.7-1.4-8
	h-0.5c-0.2,2.7-0.7,5.3-1.5,7.8l-10,32L97,112.1L97,112.1z M135.9,61.6c0-2.9,1-5.3,3-7.1c2-1.8,4.5-2.8,7.6-2.8
	c3.2,0,5.7,0.9,7.7,2.8c2,1.9,2.9,4.2,2.9,7.1c0,2.9-1,5.3-3,7.2c-2,1.9-4.5,2.9-7.6,2.9c-3,0-5.6-1-7.6-2.9
	C136.9,66.9,135.9,64.5,135.9,61.6L135.9,61.6z M137.2,148.3V82.8h18.2v65.5H137.2z"/>
</svg>
