<?xml version="1.0" encoding="utf-8"?>
<!-- Generator: Adobe Illustrator 25.4.1, SVG Export Plug-In . SVG Version: 6.00 Build 0)  -->
<svg version="1.1" id="图层_1" xmlns="http://www.w3.org/2000/svg" xmlns:xlink="http://www.w3.org/1999/xlink" x="0px" y="0px"
	 width="200px" height="200px" viewBox="0 0 200 200" style="enable-background:new 0 0 200 200;" xml:space="preserve">
<style type="text/css">
	.st0{fill:#0B1C24;}
	.st1{fill:#4FC1FF;}
</style>
<rect class="st0" width="200" height="200"/>
<path class="st1" d="M58.1,114.1v34.4H39.2V49.8h30.6c22.1,0,33.2,10.4,33.2,31.2c0,10.1-3.3,18.2-10,24.3c-6.7,6.1-15,9-25.1,8.7
	L58.1,114.1L58.1,114.1z M58.1,66.1V98h8.2C77.4,98,83,92.6,83,81.8c0-10.5-5.5-15.7-16.5-15.7H58.1z M112.9,129.6
	c6.3,4.3,12.6,6.4,18.6,6.4c7.6,0,11.5-2.3,11.5-6.8c0-3.2-3.2-5.9-9.5-8.1c-7.9-2.7-13.3-5.7-16.2-9.1c-3-3.3-4.4-7.9-4.4-13.5
	c0-6.9,2.5-12.3,7.6-16.3c5-3.9,11.7-5.9,19.9-5.9c5.8,0,11.4,1,16.8,2.9v16.2c-4.9-3.2-10.4-4.9-16.3-4.9c-3,0-5.3,0.6-7.1,1.7
	c-1.8,1.2-2.7,2.7-2.7,4.6c0,3.2,2.7,5.8,8,7.8c5.7,2.1,10.1,4.1,12.9,5.8c2.9,1.7,5.1,4.1,6.6,6.9c1.5,2.8,2.3,6.1,2.3,9.9
	c0,7.3-2.6,12.9-7.9,16.9c-5.2,4-12.3,6-21,6c-6.9,0-13.3-1.2-19.1-3.6L112.9,129.6L112.9,129.6z"/>
</svg>
