<?xml version="1.0" encoding="utf-8"?>
<!-- Generator: Adobe Illustrator 25.4.1, SVG Export Plug-In . SVG Version: 6.00 Build 0)  -->
<svg version="1.1" id="图层_1" xmlns="http://www.w3.org/2000/svg" xmlns:xlink="http://www.w3.org/1999/xlink" x="0px" y="0px"
	 width="200px" height="200px" viewBox="0 0 200 200" style="enable-background:new 0 0 200 200;" xml:space="preserve">
<style type="text/css">
	.st0{fill:#D81E06;}
	.st1{fill:#FFFFFF;}
</style>
<rect class="st0" width="200" height="200"/>
<path class="st1" d="M141,133l-66.9,19l-13.3-41.3l-9-54.1l63.6-8.5l32.7,25.1L141,133z M75.1,125.9l20.4-5.2l-5.2-10l-19,4.3
	L75.1,125.9z M68.9,96.9l19.9-4.3l5.2,9.5l22.3-4.7l-13.8-17.1L65.1,87L68.9,96.9L68.9,96.9z M114,54.2l-55.5,7.1l3.8,8.5l39.9-5.7
	l14.7,14.7l23.2-3.8C140.1,75.1,114,54.2,114,54.2z"/>
</svg>
